<?xml version="1.0" encoding="utf-8"?>
<!-- Generator: Adobe Illustrator 16.0.0, SVG Export Plug-In . SVG Version: 6.00 Build 0)  -->
<!DOCTYPE svg PUBLIC "-//W3C//DTD SVG 1.1//EN" "http://www.w3.org/Graphics/SVG/1.1/DTD/svg11.dtd">
<svg version="1.1" id="Layer_1" xmlns="http://www.w3.org/2000/svg" xmlns:xlink="http://www.w3.org/1999/xlink" x="0px" y="0px"
	 width="60px" height="60px" viewBox="0 0 60 60" enable-background="new 0 0 60 60" xml:space="preserve">
<path fill-rule="evenodd" clip-rule="evenodd" fill="#FFFFFF" d="M55.2,24.528c-0.328-1.605-0.819-3.188-1.458-4.699
	c-0.626-1.484-1.402-2.912-2.305-4.247c-0.893-1.323-1.92-2.568-3.05-3.698c-1.132-1.132-2.376-2.159-3.7-3.052
	c-1.335-0.905-2.765-1.679-4.246-2.307c-1.51-0.636-3.092-1.13-4.697-1.456c-1.647-0.338-3.341-0.51-5.034-0.51
	c-1.695,0-3.389,0.172-5.036,0.51c-1.605,0.326-3.187,0.82-4.697,1.456c-1.481,0.628-2.912,1.402-4.248,2.307
	c-1.323,0.893-2.568,1.92-3.699,3.052c-1.13,1.13-2.156,2.375-3.05,3.698c-0.903,1.335-1.679,2.763-2.305,4.247
	c-0.639,1.511-1.13,3.093-1.458,4.699c-0.337,1.644-0.508,3.338-0.508,5.031c0,1.696,0.171,3.392,0.508,5.037
	c0.329,1.605,0.819,3.188,1.458,4.697c0.626,1.481,1.402,2.913,2.305,4.249c0.894,1.323,1.92,2.565,3.05,3.697
	c1.131,1.13,2.375,2.155,3.699,3.05c1.336,0.902,2.767,1.679,4.248,2.305c1.51,0.641,3.091,1.128,4.697,1.458
	c1.647,0.34,3.341,0.51,5.036,0.51c1.693,0,3.386-0.17,5.034-0.51c1.605-0.33,3.188-0.817,4.697-1.458
	c1.481-0.626,2.911-1.402,4.246-2.305c1.324-0.895,2.568-1.92,3.7-3.05c1.13-1.132,2.157-2.374,3.05-3.697
	c0.902-1.336,1.679-2.768,2.305-4.249c0.639-1.51,1.13-3.092,1.458-4.697c0.338-1.646,0.51-3.341,0.51-5.037
	C55.71,27.867,55.538,26.172,55.2,24.528z M52.054,29.348c-0.311-0.067-7.535-1.622-14.872-0.699
	c-0.149-0.365-0.302-0.733-0.46-1.102c-0.444-1.045-0.923-2.08-1.418-3.097c8.431-3.441,11.854-8.391,11.895-8.45
	C50.193,19.636,52.004,24.282,52.054,29.348z M44.811,13.538c-0.052,0.083-3.094,4.711-11.152,7.731
	C30.009,14.563,26,9.236,25.678,8.813c1.614-0.391,3.297-0.603,5.032-0.603C36.115,8.211,41.05,10.226,44.811,13.538z M25.597,8.831
	c-0.001,0.002-0.004,0.004-0.004,0.004s-0.025,0.006-0.064,0.014C25.55,8.843,25.574,8.839,25.597,8.831z M21.601,10.251
	c0.283,0.381,4.232,5.734,7.928,12.302C19.276,25.277,10.38,25.17,9.816,25.161C11.204,18.547,15.646,13.064,21.601,10.251z
	 M9.36,29.56c0-0.227,0.01-0.45,0.018-0.674c0.376,0.008,10.926,0.247,21.918-3.042c0.612,1.197,1.196,2.414,1.732,3.628
	c-0.283,0.079-0.562,0.164-0.842,0.255c-11.521,3.724-17.365,14.092-17.365,14.092s0.007,0.006,0.008,0.01
	C11.43,40.046,9.36,35.045,9.36,29.56z M30.71,50.912c-5.168,0-9.907-1.837-13.601-4.893c0.281,0.228,0.478,0.373,0.478,0.373
	s4.093-8.926,16.756-13.337c0.045-0.018,0.093-0.031,0.14-0.045c3.005,7.806,4.245,14.344,4.562,16.211
	C36.484,50.31,33.666,50.912,30.71,50.912z M42.64,47.27c-0.218-1.29-1.355-7.555-4.156-15.251
	c6.894-1.102,12.865,0.788,13.306,0.933C50.839,38.9,47.434,44.032,42.64,47.27z"/>
</svg>
