<?xml version="1.0" encoding="utf-8"?>
<!-- Generator: Adobe Illustrator 16.0.0, SVG Export Plug-In . SVG Version: 6.00 Build 0)  -->
<!DOCTYPE svg PUBLIC "-//W3C//DTD SVG 1.1//EN" "http://www.w3.org/Graphics/SVG/1.1/DTD/svg11.dtd">
<svg version="1.1" id="Layer_1" xmlns="http://www.w3.org/2000/svg" xmlns:xlink="http://www.w3.org/1999/xlink" x="0px" y="0px"
	 width="52.823px" height="60px" viewBox="0 0 52.823 60" enable-background="new 0 0 52.823 60" xml:space="preserve">
<path fill="#FFFFFF" d="M0,27h34v-7H0V27z M0,41h34v-7H0V41z M50.555,14.396C49.043,9.345,46.907,5,44.146,0h-7.691
	c2.409,5,4.185,9.762,5.325,14.857c1.139,5.096,1.709,10.294,1.709,15.565c0,5.184-0.582,10.2-1.742,15.184
	C40.584,50.592,38.799,55,36.389,60h7.757c1.446-2,2.717-4.271,3.812-6.775s2.005-5.045,2.729-7.703s1.26-5.318,1.61-8.02
	s0.526-5.287,0.526-7.748C52.823,24.571,52.067,19.447,50.555,14.396z"/>
</svg>
