<?xml version="1.0" encoding="utf-8"?>
<!-- Generator: Adobe Illustrator 16.0.0, SVG Export Plug-In . SVG Version: 6.00 Build 0)  -->
<!DOCTYPE svg PUBLIC "-//W3C//DTD SVG 1.1//EN" "http://www.w3.org/Graphics/SVG/1.1/DTD/svg11.dtd">
<svg version="1.1" id="Layer_1" xmlns="http://www.w3.org/2000/svg" xmlns:xlink="http://www.w3.org/1999/xlink" x="0px" y="0px"
	 width="60px" height="60px" viewBox="0 0 60 60" enable-background="new 0 0 60 60" xml:space="preserve">
<path fill="#FFFFFF" d="M45.354,18.354c-0.031-0.016-0.062-0.051-0.094-0.082c-1.881-1.676-4.092-2.477-6.633-2.381l-0.078-0.172
	c0.016-0.016,0.031-0.016,0.047-0.016c2.305-0.504,3.67-1.021,4.076-1.584c0.143-0.455-0.029-0.705-0.533-0.768
	c-1.16,0.141-2.227,0.375-3.182,0.736c1.207-0.736,1.678-1.254,1.41-1.521c-1.191,0.031-2.477,0.613-3.826,1.758
	c0.502-0.816,0.691-1.256,0.566-1.334c-0.643,0.424-1.209,0.879-1.693,1.363c-1.02,1.082-1.836,2.086-2.463,2.996l-0.031,0.078
	c-1.613,2.492-2.743,5-3.417,7.557l-0.25,0.189l-0.047,0.045c-0.973-1.16-2.133-2.131-3.527-2.918
	c-1.646-1.018-3.575-1.99-5.802-2.93c-2.43-1.191-4.892-2.18-7.385-2.947c-0.015,2.65,1.349,4.766,4.062,6.303v0.047
	c-0.957-0.018-1.882,0.125-2.775,0.393c0.172,2.461,2.007,4.154,5.487,5.094l-0.017,0.047c-1.363-0.076-2.492,0.379-3.37,1.318
	c1.145,2.133,3.167,3.15,6.1,3.072c-0.581,0.283-1.035,0.594-1.333,0.941c-0.533,0.533-0.706,1.162-0.533,1.881
	c0.627,1.082,1.756,1.582,3.418,1.506l0,0l0.094,0.109c-0.016,0.016-0.031,0.031-0.047,0.047c-2.869,2.822-6.334,4.092-10.396,3.826
	l-0.062,0.031c-2.477-0.018-5.126-1.145-7.995-3.402c2.885,3.949,6.71,6.803,11.445,8.592c5.424,1.709,10.85,1.834,16.257,0.375
	h0.094c5.254-1.443,9.705-4.406,13.373-8.889c1.693-2.352,2.76-4.592,3.184-6.742c2.744,0.094,4.719-0.658,5.941-2.256l-0.029-0.049
	c-0.91,0.312-2.697,0.221-5.348-0.297v-0.283c0-0.014,0-0.014,0.016,0c2.9-0.312,4.609-1.205,5.158-2.682
	c-2.023,0.754-4.014,0.768-5.99,0.064C48.865,22.868,47.58,20.501,45.354,18.354z"/>
</svg>
